<svg version="1.1" id="Layer_1" xmlns="http://www.w3.org/2000/svg" xmlns:xlink="http://www.w3.org/1999/xlink" x="0px"
	y="0px" width="100%" viewBox="0 0 1660 1430" enable-background="new 0 0 1660 1430" xml:space="preserve">

	<path fill="#5AA7DC" opacity="1.000000" stroke="none" d="
M730.947754,1369.930908 
	C696.536438,1381.838379 661.787903,1391.064087 626.438904,1397.794434 
	C606.792969,1401.535034 586.910095,1404.148071 567.053650,1406.625122 
	C553.436096,1408.323975 539.695251,1409.204956 525.981812,1409.918945 
	C511.562225,1410.669678 497.110962,1411.034912 482.671112,1411.110962 
	C467.457733,1411.191162 456.919647,1397.936157 458.620361,1382.770996 
	C461.015076,1361.417847 471.438385,1345.714722 490.115631,1335.560669 
	C498.043335,1331.250610 506.761993,1329.404297 515.883118,1328.778809 
	C532.546692,1327.636230 549.268066,1326.545776 565.778503,1324.147583 
	C590.193237,1320.601440 614.634521,1316.798096 638.718506,1311.523804 
	C669.511902,1304.780396 699.529602,1295.086060 728.927429,1283.600952 
	C770.980225,1267.171997 811.080261,1246.868774 849.093079,1222.528931 
	C875.728149,1205.474121 901.504028,1187.089478 924.919189,1165.836792 
	C946.562988,1146.191895 966.981506,1125.196899 987.917358,1104.773438 
	C988.600647,1104.106812 989.038940,1103.189209 989.989624,1101.811279 
	C897.354675,1054.016357 819.086975,987.713257 745.683105,915.382812 
	C731.666321,926.558899 717.891296,937.799438 703.843323,948.687866 
	C677.398193,969.185181 649.404907,987.350159 620.364868,1003.972534 
	C591.049805,1020.752319 560.743164,1035.462524 529.476501,1048.152588 
	C496.407959,1061.573853 462.583832,1072.841187 427.841644,1081.088623 
	C408.338074,1085.718384 388.673584,1089.704956 369.001617,1093.574707 
	C360.400696,1095.266602 351.605499,1095.989136 342.887695,1097.063965 
	C332.572601,1098.335693 322.273407,1099.896240 311.917694,1100.641113 
	C296.228699,1101.769409 280.504150,1102.700806 264.781372,1102.987305 
	C244.507248,1103.356934 224.202942,1103.507446 203.943619,1102.815552 
	C186.605286,1102.223389 169.247070,1100.858887 152.018555,1098.816284 
	C137.072189,1097.044067 123.230263,1092.148438 114.990906,1077.978882 
	C106.609093,1063.564209 106.158905,1048.942871 115.199547,1034.788208 
	C124.404007,1020.376953 138.214706,1014.747192 154.983261,1016.163513 
	C168.038727,1017.266174 181.046188,1019.024902 194.115463,1019.854431 
	C211.175110,1020.937317 228.269058,1021.678772 245.359100,1022.014221 
	C256.829651,1022.239441 268.367065,1022.065063 279.789978,1021.084412 
	C303.339813,1019.062561 327.019775,1017.526794 350.310364,1013.730774 
	C397.466034,1006.045044 443.478088,993.788391 488.147095,976.457581 
	C548.798340,952.925903 604.939697,921.557739 656.513916,881.960388 
	C666.511047,874.284729 676.423157,866.498108 686.351196,858.733032 
	C687.124756,858.127930 687.714539,857.287781 688.725586,856.193359 
	C682.776855,849.273071 676.838745,842.382935 670.919678,835.476440 
	C629.493042,787.139465 592.017395,736.030701 561.908264,679.776611 
	C560.663330,677.450562 559.430664,676.898254 556.889526,677.224121 
	C538.644836,679.563965 520.411804,682.088318 502.106079,683.828369 
	C488.427032,685.128540 474.651337,685.716919 460.907135,685.952942 
	C441.796570,686.281189 422.644806,686.645386 403.566925,685.769409 
	C384.088287,684.875000 364.641052,682.828308 345.248627,680.669922 
	C329.464325,678.913147 313.681244,676.776672 298.081940,673.831970 
	C282.906708,670.967163 267.937012,666.977722 252.927429,663.277832 
	C208.025589,652.209229 164.654236,636.712402 122.627434,617.492249 
	C91.175278,603.108276 60.641308,586.918213 31.681421,567.987244 
	C17.927679,558.996521 11.316380,545.286682 13.413586,529.027893 
	C15.661313,511.602264 25.824711,498.857819 43.134121,494.748169 
	C55.043591,491.920654 67.233688,493.412201 78.454971,500.624329 
	C123.895493,529.829956 172.572418,552.401672 223.693771,569.709167 
	C255.921310,580.619995 288.826813,589.168030 322.378693,594.664856 
	C345.006622,598.371948 367.874756,601.290894 390.748840,602.641235 
	C417.775055,604.236633 444.929932,604.299866 472.016205,603.971436 
	C486.828003,603.791870 501.610260,601.397095 516.413574,600.089050 
	C519.039978,599.856995 521.704529,600.056091 525.289612,600.056091 
	C524.746155,597.063782 524.445190,594.566101 523.829773,592.148621 
	C518.314819,570.486389 511.568573,549.057373 507.483429,527.131470 
	C502.191681,498.729340 501.430695,469.935059 503.728760,440.952026 
	C507.267426,396.321991 519.899963,354.477997 539.806824,314.688843 
	C557.320984,279.682251 580.020935,248.181122 606.196167,219.151642 
	C641.016479,180.534348 680.020081,146.732788 723.645569,118.429657 
	C762.097656,93.482811 802.941223,73.242683 846.159546,57.836933 
	C873.695557,48.021347 901.750610,39.982265 930.463013,34.666046 
	C949.005493,31.232828 967.811218,28.991489 986.589417,27.126709 
	C1005.044983,25.293974 1023.607300,23.820528 1042.136475,23.645679 
	C1060.878662,23.468822 1079.686646,24.498241 1098.374756,26.076233 
	C1115.117065,27.489933 1131.786377,30.047018 1148.397949,32.670578 
	C1179.917480,37.648727 1210.567871,46.110233 1240.680176,56.608818 
	C1285.236450,72.143341 1327.216064,92.861839 1366.819214,118.521927 
	C1408.519897,145.541046 1446.100342,177.458252 1479.702515,213.941345 
	C1522.119385,259.994781 1556.444092,311.499146 1582.401611,368.607666 
	C1598.871216,404.841705 1611.333984,442.358643 1620.664062,480.963593 
	C1622.642578,489.150360 1623.578857,497.588074 1625.017334,505.906403 
	C1627.125000,518.095398 1629.357178,530.264160 1631.322388,542.475952 
	C1632.159912,547.680298 1632.728394,552.960083 1632.952881,558.225403 
	C1633.907104,580.609680 1635.448608,603.005005 1635.343384,625.389587 
	C1635.201294,655.561401 1632.558350,685.706604 1626.712036,715.284485 
	C1621.527710,741.512756 1614.964111,767.561401 1607.295044,793.176025 
	C1601.184570,813.585815 1593.474365,833.664124 1584.738159,853.109619 
	C1566.592773,893.499023 1544.336914,931.567627 1517.531006,966.975708 
	C1498.087280,992.659119 1476.877441,1016.695618 1453.689331,1038.977783 
	C1415.411865,1075.759399 1372.955566,1106.577393 1323.999756,1127.754395 
	C1296.793091,1139.523315 1268.499390,1147.761108 1239.098022,1151.864746 
	C1229.466064,1153.209229 1219.758179,1154.056519 1210.065063,1154.900635 
	C1203.478271,1155.474243 1196.854858,1155.961060 1190.250854,1155.924805 
	C1180.139893,1155.869385 1169.915771,1156.174194 1159.947632,1154.808472 
	C1142.622070,1152.435059 1125.369385,1149.311523 1108.251099,1145.716797 
	C1096.281738,1143.203369 1084.621826,1139.241943 1072.730469,1136.303833 
	C1071.077515,1135.895630 1068.325806,1137.117920 1067.035034,1138.484741 
	C1048.311646,1158.312988 1030.284912,1178.828125 1011.024292,1198.112915 
	C983.005249,1226.167114 952.108032,1250.867798 919.611145,1273.636108 
	C873.436340,1305.987915 824.242310,1332.732056 772.220337,1354.312012 
	C758.761475,1359.895386 744.967163,1364.670288 730.947754,1369.930908 
M1372.675537,457.119843 
	C1347.728394,468.810822 1328.770630,487.354919 1314.431885,510.357361 
	C1276.017578,571.982666 1267.305298,638.584045 1283.515015,708.739136 
	C1289.589233,735.027954 1301.031982,759.017700 1318.638794,779.774597 
	C1353.813965,821.243408 1404.881836,827.599304 1449.012085,795.953003 
	C1466.058716,783.728699 1479.825928,768.317566 1490.376343,750.346130 
	C1528.221924,685.880920 1536.192261,617.384094 1516.050415,545.696838 
	C1508.269897,518.004333 1494.784058,493.106689 1473.002441,473.685059 
	C1443.458862,447.342438 1410.173462,441.179535 1372.675537,457.119843 
M1215.392334,700.239807 
	C1214.922974,698.641663 1214.505249,697.026245 1213.976196,695.448181 
	C1210.545532,685.215698 1206.087280,675.576294 1197.304565,668.725830 
	C1188.602051,661.937988 1177.902954,661.526001 1169.839355,668.969177 
	C1164.598022,673.807251 1159.755249,679.879822 1156.896118,686.354248 
	C1145.596558,711.940674 1145.626831,738.193176 1155.754150,764.097961 
	C1158.396851,770.857361 1163.040405,777.277100 1168.121948,782.543518 
	C1177.264893,792.019104 1190.268066,792.020996 1199.164795,782.306274 
	C1204.648804,776.317810 1209.342773,768.996033 1212.337891,761.457031 
	C1220.121216,741.865967 1220.278931,721.499329 1215.392334,700.239807 
z" />
	<path fill="#AEE2FC" opacity="1.000000" stroke="none" d="
M1373.017090,456.961182 
	C1410.173462,441.179535 1443.458862,447.342438 1473.002441,473.685059 
	C1494.784058,493.106689 1508.269897,518.004333 1516.050415,545.696838 
	C1536.192261,617.384094 1528.221924,685.880920 1490.376343,750.346130 
	C1479.825928,768.317566 1466.058716,783.728699 1449.012085,795.953003 
	C1404.881836,827.599304 1353.813965,821.243408 1318.638794,779.774597 
	C1301.031982,759.017700 1289.589233,735.027954 1283.515015,708.739136 
	C1267.305298,638.584045 1276.017578,571.982666 1314.431885,510.357361 
	C1328.770630,487.354919 1347.728394,468.810822 1373.017090,456.961182 
z" />
	<path fill="#ADE2FC" opacity="1.000000" stroke="none" d="
M1215.493408,700.643677 
	C1220.278931,721.499329 1220.121216,741.865967 1212.337891,761.457031 
	C1209.342773,768.996033 1204.648804,776.317810 1199.164795,782.306274 
	C1190.268066,792.020996 1177.264893,792.019104 1168.121948,782.543518 
	C1163.040405,777.277100 1158.396851,770.857361 1155.754150,764.097961 
	C1145.626831,738.193176 1145.596558,711.940674 1156.896118,686.354248 
	C1159.755249,679.879822 1164.598022,673.807251 1169.839355,668.969177 
	C1177.902954,661.526001 1188.602051,661.937988 1197.304565,668.725830 
	C1206.087280,675.576294 1210.545532,685.215698 1213.976196,695.448181 
	C1214.505249,697.026245 1214.922974,698.641663 1215.493408,700.643677 
z" />
</svg>