<svg version="1.1" xmlns="http://www.w3.org/2000/svg" width="100%" height="100%" viewBox="0 0 2000 2000"
    enable-background="new 0 0 2000 2000" xml:space="preserve">

    <circle fill="#FFFFFF" stroke="#000000" stroke-width="0.9291" stroke-miterlimit="10" cx="1000" cy="1004.336"
        r="786.054" />
    <path fill="#E8412C" d="M999.997,158.276c-467.273,0-846.056,378.774-846.056,846.057s378.783,846.063,846.056,846.063
	c467.272,0,846.063-378.781,846.063-846.063S1467.27,158.276,999.997,158.276 M1252.645,1160.133l195.282,338.717
	c-35.177,31.906-73.859,59.963-115.254,83.863l-141.599-245.246l-129.899,224.558l-122.714-0.048l-129.571-224.41L667.363,1582.73
	c-41.384-23.899-80.074-51.963-115.271-83.881l195.271-338.718H350.951c-10.925-45.623-17.148-93.282-18.14-141.987h291.75
	L495.052,793.377l61.396-106.284h259.127L665.454,427.04c40.845-23.765,84.376-43.368,130.109-58.116l204.434,353.612
	L938.343,828.92H679.116l129.519,224.711l-61.271,106.502h122.896l129.637,224.755l129.89-224.755H1252.645l-61.241-106.554
	L1321.02,828.9h-259.418l-61.604-106.353l204.442-353.624c45.733,14.748,89.264,34.352,130.146,58.116L1184.37,687.2l259.417,0.221
	l61.314,106.311l-129.543,224.413h291.643c-1.001,48.688-7.207,96.35-18.149,141.988H1252.645L1252.645,1160.133z" />
</svg>