<svg version="1.1" id="Layer_1" xmlns="http://www.w3.org/2000/svg" xmlns:xlink="http://www.w3.org/1999/xlink" x="0px"
	y="0px" width="100%" viewBox="0 0 1024 1024" enable-background="new 0 0 1024 1024" xml:space="preserve">
	<path fill="#51D2C0" opacity="1.000000" stroke="none" d="
M272.947205,8.994215 
	C285.571533,8.995613 284.192474,8.324757 284.173126,19.760571 
	C284.122345,49.758888 284.205261,79.759361 283.870789,109.754921 
	C282.635193,220.574814 283.798645,331.399628 283.056976,442.220093 
	C283.009216,449.354889 284.187317,450.118469 290.487091,446.634125 
	C331.453094,423.976288 372.393829,401.272705 413.323730,378.549683 
	C472.605988,345.638000 531.883850,312.718384 591.141052,279.761627 
	C634.965271,255.388168 678.736328,230.919144 722.591858,206.602188 
	C725.945557,204.742645 727.440918,202.275681 727.524414,198.661224 
	C727.574402,196.495529 727.617859,194.329590 727.648071,192.163544 
	C728.091980,160.340775 728.450134,128.516510 728.999817,96.695564 
	C729.488892,68.381523 730.258423,40.072243 730.719055,11.757854 
	C730.784729,7.721484 732.064209,6.054537 736.154297,6.028297 
	C752.317322,5.924602 768.479492,5.660658 784.641296,5.411899 
	C787.078796,5.374381 788.465027,6.415771 788.644897,8.828379 
	C788.818115,11.151509 788.883057,13.485649 788.913696,15.816028 
	C789.476257,58.636780 790.016418,101.457832 790.591309,144.278427 
	C790.669678,150.107681 790.846008,155.937439 791.093323,161.762039 
	C791.310364,166.875229 792.290588,167.404312 796.824036,164.859970 
	C830.095154,146.186539 863.465759,127.687752 896.327576,108.294098 
	C897.309448,107.714661 898.204285,106.866035 900.074829,107.144852 
	C900.421692,109.892921 901.020447,112.793266 901.116638,115.710197 
	C901.588684,130.023773 901.845337,144.344772 902.371460,158.656021 
	C902.499451,162.137650 901.189514,164.055130 898.198425,165.745285 
	C864.697021,184.675919 831.294800,203.782043 797.783203,222.694534 
	C793.904846,224.883347 792.009094,227.242294 792.103516,232.034637 
	C792.723450,263.516724 792.789062,295.010101 793.461914,326.490692 
	C794.327087,366.966217 794.877258,407.444153 795.473999,447.923462 
	C796.031433,485.735168 795.983398,523.596313 797.685669,561.344055 
	C799.769714,607.558594 819.407837,644.616882 861.415466,667.442993 
	C873.019714,673.748535 885.692444,676.668579 898.875427,676.869019 
	C903.564636,676.940308 905.338379,678.492981 905.276245,683.309937 
	C905.080811,698.472717 905.091614,713.643738 905.389038,728.804321 
	C905.484558,733.674805 903.860107,735.296631 899.079163,735.019897 
	C846.930603,732.001282 804.336426,710.329956 771.411926,669.775940 
	C757.256531,652.340332 747.329834,632.688049 741.237793,611.082581 
	C740.388733,608.071289 740.342590,608.084290 738.115540,605.656250 
	C735.707214,606.371155 735.263977,608.718140 734.266846,610.529907 
	C712.055786,650.887451 685.938232,688.292725 652.577881,720.403076 
	C619.387573,752.349731 581.351990,776.675232 538.952148,794.455688 
	C512.908142,805.377319 486.163696,813.835938 458.342651,818.829529 
	C417.104919,826.231323 376.818481,824.239563 338.181702,806.535278 
	C322.332733,799.272888 307.972443,789.631104 294.739136,778.295532 
	C292.716888,776.563232 290.631714,774.902405 288.531189,773.265564 
	C288.194275,773.003052 287.622650,773.041870 286.550873,772.809265 
	C286.550873,779.262024 286.494324,785.504822 286.575439,791.745911 
	C286.614380,794.739929 287.033691,797.728821 287.076538,800.722961 
	C287.517944,831.543518 287.630676,862.371887 288.401337,893.183838 
	C289.363617,931.657776 290.068542,970.132141 290.432892,1008.615417 
	C290.531769,1019.060303 290.721344,1019.033630 280.330780,1019.066650 
	C266.831848,1019.109619 253.328354,1019.014893 239.836716,1019.363159 
	C235.044479,1019.486938 233.627121,1018.017212 233.548355,1013.187134 
	C232.600174,955.032898 233.224442,896.867615 232.451813,838.719177 
	C231.794174,789.225830 232.315018,739.729126 231.465332,690.247559 
	C230.686981,644.920837 230.896164,599.597839 230.650024,554.273376 
	C230.648224,553.940063 230.652237,553.606628 230.647064,553.273376 
	C230.548492,546.935913 229.483810,546.212646 224.092667,549.231445 
	C212.464539,555.742737 200.892838,562.354919 189.309708,568.946350 
	C167.880402,581.140930 146.464386,593.358948 125.023560,605.533264 
	C123.635117,606.321655 122.306793,607.587891 120.384918,606.901978 
	C119.197243,605.096069 119.705933,603.042236 119.700928,601.102051 
	C119.655746,583.603088 119.881485,566.099915 119.542053,548.607422 
	C119.441193,543.409485 121.120461,540.553650 125.652679,538.071228 
	C158.383087,520.143982 190.930023,501.881622 223.662766,483.958649 
	C228.183304,481.483429 229.939560,478.695496 229.860092,473.459198 
	C229.528870,451.631683 229.994827,429.791046 229.591751,407.965851 
	C228.483856,347.978271 229.307144,287.978943 228.439606,227.997696 
	C227.788849,183.003708 227.961319,138.014420 227.619110,93.024139 
	C227.422684,67.198242 227.136841,41.372253 226.690872,15.549767 
	C226.614578,11.132784 227.722687,9.566846 232.483139,9.375267 
	C245.812469,8.838842 259.135071,9.231269 272.947205,8.994215 
M466.186340,755.622681 
	C482.029266,752.264282 497.698181,748.144836 512.314270,741.108704 
	C552.920715,721.560913 589.184753,695.850464 620.370117,663.212036 
	C686.982239,593.495850 720.251709,509.849121 723.488953,413.985199 
	C724.664001,379.190521 724.560730,344.352753 725.060486,309.534943 
	C725.096252,307.039154 725.356506,304.546875 725.405823,302.050873 
	C725.622742,291.057007 725.818298,280.062622 725.981750,269.067841 
	C726.029358,265.868073 724.624573,264.720398 721.604492,266.293396 
	C719.536987,267.370239 717.477112,268.465027 715.450317,269.615967 
	C666.060242,297.663147 616.657166,325.687408 567.293396,353.780884 
	C498.531219,392.914337 429.798767,432.100067 361.054199,471.264526 
	C336.163116,485.445221 311.285492,499.649658 286.366821,513.781677 
	C283.667786,515.312378 282.246002,517.075195 282.274536,520.442932 
	C282.525452,550.056030 281.735443,579.675598 285.168213,609.212280 
	C287.928101,632.959412 292.780396,656.146179 301.864319,678.276367 
	C315.295044,710.996155 336.574158,736.669617 370.057281,750.274048 
	C401.075500,762.876892 433.108490,762.197083 466.186340,755.622681 
z" />
</svg>